<svg width="35" height="36" viewBox="0 0 35 36" fill="none" xmlns="http://www.w3.org/2000/svg">
<path d="M17.5 14C18.8924 14 20.2277 13.4469 21.2123 12.4623C22.1969 11.4777 22.75 10.1424 22.75 8.75C22.75 7.35761 22.1969 6.02226 21.2123 5.03769C20.2277 4.05312 18.8924 3.5 17.5 3.5C16.1076 3.5 14.7723 4.05312 13.7877 5.03769C12.8031 6.02226 12.25 7.35761 12.25 8.75C12.25 10.1424 12.8031 11.4777 13.7877 12.4623C14.7723 13.4469 16.1076 14 17.5 14ZM21 8.75C21 9.67826 20.6313 10.5685 19.9749 11.2249C19.3185 11.8813 18.4283 12.25 17.5 12.25C16.5717 12.25 15.6815 11.8813 15.0251 11.2249C14.3687 10.5685 14 9.67826 14 8.75C14 7.82174 14.3687 6.9315 15.0251 6.27513C15.6815 5.61875 16.5717 5.25 17.5 5.25C18.4283 5.25 19.3185 5.61875 19.9749 6.27513C20.6313 6.9315 21 7.82174 21 8.75ZM28 22.75C28 24.5 26.25 24.5 26.25 24.5H8.75C8.75 24.5 7 24.5 7 22.75C7 21 8.75 15.75 17.5 15.75C26.25 15.75 28 21 28 22.75ZM26.25 22.743C26.2482 22.3125 25.9805 21.0175 24.794 19.831C23.653 18.69 21.5057 17.5 17.5 17.5C13.4925 17.5 11.347 18.69 10.206 19.831C9.0195 21.0175 8.7535 22.3125 8.75 22.743H26.25Z" fill="#B6B6EA"/>
<rect y="32" width="35" height="4" rx="2" fill="#B6B6EA"/>
</svg>
