<svg width="35" height="36" viewBox="0 0 35 36" fill="none" xmlns="http://www.w3.org/2000/svg">
<path d="M16.4195 3.07187C16.7928 2.08721 18.2057 2.08721 18.5802 3.07187L20.9952 9.76154C21.1643 10.2049 21.5948 10.5 22.0755 10.5H28.0103C29.107 10.5 29.5853 11.865 28.7232 12.5335L24.4998 16.3334C24.3107 16.4788 24.1724 16.6804 24.1049 16.9093C24.0374 17.1382 24.0442 17.3826 24.1242 17.6074L25.6665 24.1442C26.0422 25.1942 24.8265 26.096 23.9072 25.4497L18.1707 21.8097C17.9742 21.6716 17.74 21.5976 17.4998 21.5976C17.2597 21.5976 17.0255 21.6716 16.829 21.8097L11.0925 25.4497C10.1743 26.096 8.95751 25.193 9.33318 24.1442L10.8755 17.6074C10.9555 17.3826 10.9623 17.1382 10.8948 16.9093C10.8273 16.6804 10.689 16.4788 10.4998 16.3334L6.27651 12.5335C5.41318 11.865 5.89385 10.5 6.98818 10.5H12.923C13.1567 10.5008 13.3851 10.4306 13.578 10.2988C13.7709 10.1669 13.9192 9.97955 14.0033 9.76154L16.4183 3.07187H16.4195Z" stroke="#B6B6EA" stroke-width="2" stroke-linecap="round" stroke-linejoin="round"/>
<rect y="32" width="35" height="4" rx="2" fill="#B6B6EA"/>
</svg>
