<svg width="22" height="24" viewBox="0 0 22 24" fill="none" xmlns="http://www.w3.org/2000/svg">
<path d="M9.79775 1.20845C10.1227 0.901263 10.5529 0.730103 11 0.730103C11.4471 0.730103 11.8773 0.901263 12.2023 1.20845L20.6793 9.2217C21.2043 9.71695 21.5 10.4082 21.5 11.1292V20.8767C21.5 21.5729 21.2234 22.2406 20.7312 22.7329C20.2389 23.2251 19.5712 23.5017 18.875 23.5017H15.375C15.0301 23.5017 14.6886 23.4337 14.3701 23.3017C14.0515 23.1697 13.762 22.9762 13.5182 22.7322C13.2744 22.4883 13.0811 22.1987 12.9493 21.88C12.8175 21.5614 12.7498 21.2198 12.75 20.875V16.5C12.75 16.2679 12.6578 16.0453 12.4937 15.8812C12.3296 15.7171 12.1071 15.625 11.875 15.625H10.125C9.89294 15.625 9.67038 15.7171 9.50628 15.8812C9.34219 16.0453 9.25 16.2679 9.25 16.5V20.875C9.25 21.5711 8.97344 22.2388 8.48116 22.7311C7.98887 23.2234 7.32119 23.5 6.625 23.5H3.125C2.42881 23.5 1.76113 23.2234 1.26884 22.7311C0.776562 22.2388 0.5 21.5711 0.5 20.875V11.1275C0.5 10.4065 0.7975 9.7152 1.3225 9.21995L9.79775 1.20495V1.20845ZM11 2.47895L2.523 10.494C2.43694 10.5755 2.36837 10.6738 2.32144 10.7827C2.27451 10.8916 2.2502 11.0089 2.25 11.1275V20.875C2.25 21.107 2.34219 21.3296 2.50628 21.4937C2.67038 21.6578 2.89294 21.75 3.125 21.75H6.625C6.85706 21.75 7.07962 21.6578 7.24372 21.4937C7.40781 21.3296 7.5 21.107 7.5 20.875V16.5C7.5 15.8038 7.77656 15.1361 8.26884 14.6438C8.76113 14.1515 9.42881 13.875 10.125 13.875H11.875C12.5712 13.875 13.2389 14.1515 13.7312 14.6438C14.2234 15.1361 14.5 15.8038 14.5 16.5V20.875C14.5 21.107 14.5922 21.3296 14.7563 21.4937C14.9204 21.6578 15.1429 21.75 15.375 21.75H18.875C19.1071 21.75 19.3296 21.6578 19.4937 21.4937C19.6578 21.3296 19.75 21.107 19.75 20.875V11.1275C19.75 11.0086 19.7258 10.8909 19.6789 10.7817C19.632 10.6725 19.5633 10.574 19.477 10.4922L11 2.47895Z" fill="#B6B6EA"/>
</svg>
