<svg width="49" height="49" viewBox="0 0 49 49" fill="none" xmlns="http://www.w3.org/2000/svg">
<circle cx="24.5" cy="24.5" r="24.5" fill="#C4C4C4"/>
<path d="M24.5 10.75C23.1403 10.75 21.811 11.1532 20.6805 11.9086C19.5499 12.6641 18.6687 13.7378 18.1483 14.9941C17.628 16.2503 17.4918 17.6326 17.7571 18.9662C18.0224 20.2999 18.6772 21.5249 19.6386 22.4864C20.6001 23.4478 21.8251 24.1026 23.1588 24.3679C24.4924 24.6332 25.8747 24.497 27.1309 23.9767C28.3872 23.4563 29.4609 22.5751 30.2164 21.4445C30.9718 20.314 31.375 18.9847 31.375 17.625C31.375 15.8016 30.6507 14.053 29.3614 12.7636C28.072 11.4743 26.3234 10.75 24.5 10.75ZM24.5 21.75C23.6842 21.75 22.8866 21.5081 22.2083 21.0548C21.5299 20.6016 21.0012 19.9573 20.689 19.2036C20.3768 18.4498 20.2951 17.6204 20.4543 16.8203C20.6134 16.0201 21.0063 15.2851 21.5832 14.7082C22.1601 14.1313 22.8951 13.7384 23.6953 13.5793C24.4954 13.4201 25.3248 13.5018 26.0786 13.814C26.8323 14.1262 27.4766 14.6549 27.9298 15.3333C28.3831 16.0116 28.625 16.8092 28.625 17.625C28.625 18.719 28.1904 19.7682 27.4168 20.5418C26.6432 21.3154 25.594 21.75 24.5 21.75ZM36.875 36.875V35.5C36.875 32.9473 35.8609 30.4991 34.0559 28.6941C32.2509 26.8891 29.8027 25.875 27.25 25.875H21.75C19.1973 25.875 16.7491 26.8891 14.9441 28.6941C13.1391 30.4991 12.125 32.9473 12.125 35.5V36.875H14.875V35.5C14.875 33.6766 15.5993 31.928 16.8886 30.6386C18.178 29.3493 19.9266 28.625 21.75 28.625H27.25C29.0734 28.625 30.822 29.3493 32.1114 30.6386C33.4007 31.928 34.125 33.6766 34.125 35.5V36.875H36.875Z" fill="white"/>
</svg>
