<svg width="35" height="36" viewBox="0 0 35 36" fill="none" xmlns="http://www.w3.org/2000/svg">
<path d="M16.2978 2.20845C16.6227 1.90126 17.0529 1.7301 17.5 1.7301C17.9471 1.7301 18.3773 1.90126 18.7023 2.20845L27.1793 10.2217C27.7043 10.717 28 11.4082 28 12.1292V21.8767C28 22.5729 27.7234 23.2406 27.2312 23.7329C26.7389 24.2251 26.0712 24.5017 25.375 24.5017H21.875C21.5301 24.5017 21.1886 24.4337 20.8701 24.3017C20.5515 24.1697 20.262 23.9762 20.0182 23.7322C19.7744 23.4883 19.5811 23.1987 19.4493 22.88C19.3175 22.5614 19.2498 22.2198 19.25 21.875V17.5C19.25 17.2679 19.1578 17.0453 18.9937 16.8812C18.8296 16.7171 18.6071 16.625 18.375 16.625H16.625C16.3929 16.625 16.1704 16.7171 16.0063 16.8812C15.8422 17.0453 15.75 17.2679 15.75 17.5V21.875C15.75 22.5711 15.4734 23.2388 14.9812 23.7311C14.4889 24.2234 13.8212 24.5 13.125 24.5H9.625C8.92881 24.5 8.26113 24.2234 7.76884 23.7311C7.27656 23.2388 7 22.5711 7 21.875V12.1275C7 11.4065 7.2975 10.7152 7.8225 10.22L16.2978 2.20495V2.20845ZM17.5 3.47895L9.023 11.494C8.93694 11.5755 8.86837 11.6738 8.82144 11.7827C8.77451 11.8916 8.7502 12.0089 8.75 12.1275V21.875C8.75 22.107 8.84219 22.3296 9.00628 22.4937C9.17038 22.6578 9.39294 22.75 9.625 22.75H13.125C13.3571 22.75 13.5796 22.6578 13.7437 22.4937C13.9078 22.3296 14 22.107 14 21.875V17.5C14 16.8038 14.2766 16.1361 14.7688 15.6438C15.2611 15.1515 15.9288 14.875 16.625 14.875H18.375C19.0712 14.875 19.7389 15.1515 20.2312 15.6438C20.7234 16.1361 21 16.8038 21 17.5V21.875C21 22.107 21.0922 22.3296 21.2563 22.4937C21.4204 22.6578 21.6429 22.75 21.875 22.75H25.375C25.6071 22.75 25.8296 22.6578 25.9937 22.4937C26.1578 22.3296 26.25 22.107 26.25 21.875V12.1275C26.25 12.0086 26.2258 11.8909 26.1789 11.7817C26.132 11.6725 26.0633 11.574 25.977 11.4922L17.5 3.47895Z" fill="#B6B6EA"/>
<rect y="32" width="35" height="4" rx="2" fill="#B6B6EA"/>
</svg>
