<svg width="28" height="28" viewBox="0 0 28 28" fill="none" xmlns="http://www.w3.org/2000/svg">
<path d="M12.9195 3.07187C13.2928 2.08721 14.7057 2.08721 15.0802 3.07187L17.4952 9.76154C17.6643 10.2049 18.0948 10.5 18.5755 10.5H24.5103C25.607 10.5 26.0853 11.865 25.2232 12.5335L20.9998 16.3334C20.8107 16.4788 20.6724 16.6804 20.6049 16.9093C20.5374 17.1382 20.5442 17.3826 20.6242 17.6074L22.1665 24.1442C22.5422 25.1942 21.3265 26.096 20.4072 25.4497L14.6707 21.8097C14.4742 21.6716 14.24 21.5976 13.9998 21.5976C13.7597 21.5976 13.5255 21.6716 13.329 21.8097L7.59251 25.4497C6.67434 26.096 5.45751 25.193 5.83318 24.1442L7.37551 17.6074C7.45552 17.3826 7.46226 17.1382 7.39477 16.9093C7.32728 16.6804 7.18903 16.4788 6.99984 16.3334L2.77651 12.5335C1.91318 11.865 2.39385 10.5 3.48818 10.5H9.42301C9.65668 10.5008 9.88509 10.4306 10.078 10.2988C10.2709 10.1669 10.4192 9.97955 10.5033 9.76154L12.9183 3.07187H12.9195Z" stroke="#B6B6EA" stroke-width="2" stroke-linecap="round" stroke-linejoin="round"/>
</svg>
